<svg xmlns="http://www.w3.org/2000/svg" viewBox="0 0 375.03 147.56"><defs><style>.cls-1{font-size:78.44px;font-family:Bayshore;letter-spacing:0.01em;}.cls-1,.cls-2,.cls-3{fill:#fff;}.cls-2{font-size:47.13px;font-family:Comfortaa-Light, Comfortaa;font-weight:300;letter-spacing:0.02em;}</style></defs><g id="Capa_2" data-name="Capa 2"><g id="Logo_exportable_7" data-name="Logo exportable 7"><text class="cls-1" transform="translate(6.31 106.53)">Software</text><text class="cls-2" transform="translate(3.25 41.97)">Club de</text><g id="Logo_Club_de_Software_UTC" data-name="Logo Club de Software UTC"><path id="Contorno" class="cls-3" d="M374.09,63.09a3.16,3.16,0,0,0-2.32-.94q-9.56,0-9.56-9.57V27.88q0-16-15.87-16c-18.8,0-28.82,24-31.64,32-1,2.9-2.12,5.76-3.26,8.62l-9.19,23a87.91,87.91,0,0,1-14,23.73c-5.68,6.81-12.9,13.22-20,13.22q-9.45,0-9.46-9.57V78.2q0-7.89-4.73-12.82,4.74-4.74,4.73-12.72V28q0-9.47,9.46-9.47A128.17,128.17,0,0,0,285,19.85c8,0,18.34-3.14,18.34-3.14a149.5,149.5,0,0,1-32.24-3.92,18.32,18.32,0,0,0-8.77,0q-9.95,2.63-10,15.18V52.66q0,9.56-9.56,9.56a3.28,3.28,0,0,0-2.32.89,3,3,0,0,0-.94,2.27,3.21,3.21,0,0,0,3.26,3.25q9.56,0,9.56,9.57v24.7q0,16,15.87,16c9.31,0,18.17-8.38,24.69-16.76a98.09,98.09,0,0,0,13.59-24l11-27.58c.44-1.11.86-2.23,1.27-3.35,2.11-5.79,11.54-28.92,27.48-28.92q9.45,0,9.46,9.56v24.7q0,7.89,4.73,12.83-4.74,4.73-4.73,12.71v24.71q0,7.88-6.57,9.19a11.47,11.47,0,0,1-4.52-.08,70.27,70.27,0,0,0-13-1.39c-7.45,0-20.41,3.52-20.41,3.52A149.5,149.5,0,0,1,343.49,118a18.2,18.2,0,0,0,8.77,0q9.94-2.62,9.95-15.18V78.12q0-9.56,9.56-9.56a3.28,3.28,0,0,0,2.32-.89,3,3,0,0,0,.94-2.26A3.16,3.16,0,0,0,374.09,63.09Z"/><g id="Punto_y_coma" data-name="Punto y coma"><circle class="cls-3" cx="280.06" cy="65.39" r="6.21"/><path class="cls-3" d="M340.93,69.14a5.9,5.9,0,0,0,.66-5.11,6.31,6.31,0,0,0-5.88-4.85,6.21,6.21,0,0,0-2.79,11.76,1.69,1.69,0,0,1,.9,1.34,10.3,10.3,0,0,1-.69,4.53,13.63,13.63,0,0,1-1.79,3.26l-1.63,2.23a20.15,20.15,0,0,0,9.43-9.43C340.93,69.14,339.94,71.15,340.93,69.14Z"/></g></g></g></g></svg>